<?xml version="1.0" encoding="UTF-8" standalone="no"?>
<!-- Created with Inkscape (http://www.inkscape.org/) -->

<svg
   width="52.302563mm"
   height="8.6465559mm"
   viewBox="0 0 52.302563 8.6465559"
   version="1.1"
   id="svg5"
   inkscape:version="1.1 (c68e22c387, 2021-05-23)"
   sodipodi:docname="Logo_v1.svg"
   xmlns:inkscape="http://www.inkscape.org/namespaces/inkscape"
   xmlns:sodipodi="http://sodipodi.sourceforge.net/DTD/sodipodi-0.dtd"
   xmlns="http://www.w3.org/2000/svg"
   xmlns:svg="http://www.w3.org/2000/svg">
  <sodipodi:namedview
     id="namedview7"
     pagecolor="#ffffff"
     bordercolor="#666666"
     borderopacity="1.0"
     inkscape:pageshadow="2"
     inkscape:pageopacity="0.0"
     inkscape:pagecheckerboard="0"
     inkscape:document-units="mm"
     showgrid="false"
     inkscape:zoom="2.7901515"
     inkscape:cx="137.08933"
     inkscape:cy="-58.598969"
     inkscape:window-width="1920"
     inkscape:window-height="981"
     inkscape:window-x="-10"
     inkscape:window-y="1190"
     inkscape:window-maximized="1"
     inkscape:current-layer="text35495" />
  <defs
     id="defs2">
    <rect
       x="244.07277"
       y="411.4472"
       width="382.05811"
       height="104.29541"
       id="rect83431" />
    <rect
       x="232.96227"
       y="408.57996"
       width="292.81564"
       height="110.02987"
       id="rect79909" />
  </defs>
  <g
     inkscape:label="Layer 1"
     inkscape:groupmode="layer"
     id="layer1"
     transform="translate(-71.303566,-138.42085)">
    <text
       xml:space="preserve"
       style="font-style:normal;font-weight:normal;font-size:10.5833px;line-height:1.25;font-family:sans-serif;fill:#000000;fill-opacity:1;stroke:none;stroke-width:0.264583"
       x="157.79309"
       y="115.5"
       id="text28620"><tspan
         sodipodi:role="line"
         id="tspan28618"
         style="stroke-width:0.264583"
         x="157.79309"
         y="115.5" /></text>
    <text
       xml:space="preserve"
       style="font-style:normal;font-weight:normal;font-size:10.5833px;line-height:1.25;font-family:sans-serif;fill:#000000;fill-opacity:1;stroke:none;stroke-width:0.264583"
       x="108.19828"
       y="153.3362"
       id="text33367"><tspan
         sodipodi:role="line"
         id="tspan33365"
         style="stroke-width:0.264583"
         x="108.19828"
         y="153.3362" /></text>
    <g
       aria-label="NonlinSDP"
       id="text35495"
       style="font-size:10.5833px;line-height:1.25;stroke-width:0.264583">
      <path
         d="m 75.991967,139.03468 q 0,-0.50799 0.624415,-0.50799 0.624415,0 0.624415,0.50799 v 7.30248 q 0,0.37042 -0.391582,0.53975 h 0.01058 q -0.169333,0.0741 -0.359832,0.11642 -0.1905,0.0423 -0.370416,0.0423 -0.137583,0 -0.285749,-0.0318 -0.148166,-0.0212 -0.285749,-0.0741 -0.127,-0.0635 -0.243416,-0.15875 -0.105833,-0.10584 -0.169333,-0.254 l -2.296576,-5.72557 -0.285749,0.0318 v 5.71498 q 0,0.508 -0.634998,0.508 -0.624414,0 -0.624414,-0.508 v -7.29189 q 0,-0.43392 0.380998,-0.58208 0.349249,-0.13758 0.740831,-0.13758 0.275166,0 0.550332,0.11641 0.285749,0.10584 0.433915,0.41275 l 2.285993,5.73615 0.296332,-0.0317 z"
         style="fill:#7e9071"
         id="path1932" />
      <path
         d="m 82.109105,140.6116 q 0.275165,0 0.560915,0.11641 0.296332,0.11642 0.571498,0.29633 h -0.01058 q 0.275166,0.20109 0.423332,0.52917 0.148167,0.3175 0.148167,0.74083 V 145.3 q 0,0.86783 -0.571499,1.28058 -0.560914,0.40216 -1.121829,0.40216 h -1.693328 q -0.275166,0 -0.560915,-0.0952 -0.285749,-0.0953 -0.560915,-0.30691 -0.571498,-0.40217 -0.571498,-1.28058 v -3.00566 q 0,-0.42333 0.148166,-0.74083 0.148166,-0.32808 0.423332,-0.52917 h -0.01058 q 0.264582,-0.17991 0.560915,-0.29633 0.296332,-0.11641 0.571498,-0.11641 z m -0.1905,5.37631 q 0.391582,0 0.550332,-0.22225 0.169333,-0.22225 0.169333,-0.47625 v -2.98449 q 0,-0.26458 -0.169333,-0.47624 -0.15875,-0.22225 -0.550332,-0.22225 h -1.312329 q -0.391582,0 -0.560915,0.22225 -0.158749,0.21166 -0.158749,0.47624 v 2.98449 q 0,0.254 0.158749,0.47625 0.169333,0.22225 0.560915,0.22225 z"
         style="fill:#7e9071"
         id="path1934" />
      <path
         d="m 86.300081,146.53824 q 0,0.508 -0.582082,0.508 -0.582081,0 -0.582081,-0.508 v -4.25448 q 0,-0.43392 0.137583,-0.75142 0.137582,-0.3175 0.433915,-0.51858 0.560915,-0.40216 1.12183,-0.40216 h 1.703911 q 0.539748,0 1.12183,0.40216 0.571498,0.40217 0.571498,1.27 v 4.25448 q 0,0.508 -0.582082,0.508 -0.582081,0 -0.582081,-0.508 v -4.15923 q 0,-0.27517 -0.169333,-0.52917 l 0.01058,0.0106 q -0.137583,-0.254 -0.560915,-0.254 h -1.322912 q -0.433915,0 -0.571498,0.254 -0.148166,0.22224 -0.148166,0.51858 z"
         style="fill:#7e9071"
         id="path1936" />
      <path
         d="m 92.798212,146.56999 q 0,0.49742 -0.582082,0.49742 -0.592664,0 -0.592664,-0.49742 v -7.58822 q 0,-0.49742 0.592664,-0.49742 0.582082,0 0.582082,0.49742 z"
         style="fill:#7e9071"
         id="path1938" />
      <path
         d="m 95.454609,146.53824 q 0,0.508 -0.582081,0.508 -0.592665,0 -0.592665,-0.508 v -5.46098 q 0,-0.508 0.592665,-0.508 0.582081,0 0.582081,0.508 z m 0.22225,-7.30247 q 0,0.33866 -0.232833,0.5715 -0.232833,0.23283 -0.571498,0.23283 -0.338666,0 -0.582082,-0.23283 -0.232832,-0.23284 -0.232832,-0.5715 0,-0.34925 0.232832,-0.58208 0.243416,-0.23284 0.582082,-0.23284 0.338665,0 0.571498,0.23284 0.232833,0.23283 0.232833,0.58208 z"
         style="fill:#7e9071"
         id="path1940" />
      <path
         d="m 98.08984,146.53824 q 0,0.508 -0.582081,0.508 -0.582082,0 -0.582082,-0.508 v -4.25448 q 0,-0.43392 0.137583,-0.75142 0.137583,-0.3175 0.433915,-0.51858 0.560915,-0.40216 1.12183,-0.40216 h 1.703915 q 0.53974,0 1.12183,0.40216 0.57149,0.40217 0.57149,1.27 v 4.25448 q 0,0.508 -0.58208,0.508 -0.58208,0 -0.58208,-0.508 v -4.15923 q 0,-0.27517 -0.16933,-0.52917 l 0.0106,0.0106 q -0.13758,-0.254 -0.56091,-0.254 h -1.322915 q -0.433916,0 -0.571499,0.254 -0.148166,0.22224 -0.148166,0.51858 z"
         style="fill:#7e9071"
         id="path1942" />
      <path
         d="m 107.4878,142.14617 q 0.27516,0 0.57149,0.11642 0.29634,0.11642 0.5715,0.30692 h -0.0106 q 0.27517,0.1905 0.42333,0.51858 0.14817,0.32808 0.14817,0.75141 v 1.44991 q 0,0.85725 -0.5715,1.28058 -0.27517,0.20109 -0.5715,0.3175 -0.28575,0.10584 -0.56091,0.10584 h -2.30716 q -0.27517,0 -0.5715,-0.10584 -0.28575,-0.11641 -0.56092,-0.3175 -0.57149,-0.42333 -0.57149,-1.28058 v -0.69849 q 0,-0.49742 0.62441,-0.49742 0.635,0 0.635,0.49742 v 0.61383 q 0,0.27516 0.15875,0.49741 0.15875,0.22225 0.55033,0.22225 h 1.77799 q 0.39159,0 0.55034,-0.22225 0.15875,-0.22225 0.15875,-0.49741 v -1.28058 q 0,-0.26458 -0.15875,-0.48683 -0.15875,-0.23284 -0.55034,-0.23284 h -2.04257 q -0.55033,0 -1.13242,-0.40216 -0.57149,-0.4445 -0.57149,-1.28058 v -1.25941 q 0,-0.42333 0.14816,-0.74083 0.14817,-0.32809 0.42333,-0.52917 h -0.0106 q 0.27517,-0.17992 0.5715,-0.29633 0.29633,-0.11642 0.5715,-0.11642 h 2.30716 q 0.27516,0 0.57149,0.11642 0.29634,0.11641 0.5715,0.29633 h -0.0106 q 0.27517,0.20108 0.42333,0.52917 0.14817,0.3175 0.14817,0.74083 v 0.62441 q 0,0.49742 -0.635,0.49742 -0.62441,0 -0.62441,-0.49742 v -0.52916 q 0,-0.26459 -0.15875,-0.48684 -0.15875,-0.22224 -0.55034,-0.22224 h -1.77799 q -0.39158,0 -0.55033,0.22224 -0.15875,0.22225 -0.15875,0.48684 v 1.07949 q 0,0.27517 0.15875,0.49742 0.15875,0.21166 0.55033,0.21166 z"
         style="fill:#e5bb58"
         id="path1944" />
      <path
         d="m 114.58918,145.92441 q 0.39158,0 0.55033,-0.22225 0.15875,-0.22225 0.15875,-0.49741 v -4.84715 q 0,-0.26459 -0.15875,-0.48684 -0.15875,-0.22224 -0.55033,-0.22224 h -2.4765 l -0.0106,6.90031 q 0,0.23283 -0.17992,0.37041 -0.17991,0.13759 -0.44449,0.13759 -0.62442,0 -0.62442,-0.508 v -7.33423 q 0,-0.381 0.1905,-0.508 0.20108,-0.127 0.47625,-0.127 h 3.33374 q 0.27516,0 0.5715,0.11642 0.29633,0.11641 0.57149,0.29633 h -0.0106 q 0.27517,0.20108 0.42333,0.52917 0.14817,0.3175 0.14817,0.74083 v 5.02706 q 0,0.85725 -0.5715,1.28058 -0.27516,0.20109 -0.5715,0.3175 -0.28575,0.10584 -0.56091,0.10584 h -1.778 q -0.17991,0 -0.28575,-0.14817 -0.0952,-0.14817 -0.0952,-0.39158 0,-0.52917 0.45508,-0.52917 z"
         style="fill:#e5bb58"
         id="path1946" />
      <path
         d="m 120.45231,143.87125 q -0.17992,0 -0.28575,-0.13758 -0.0953,-0.14817 -0.0953,-0.39158 0,-0.53975 0.4445,-0.53975 h 1.12183 q 0.39158,0 0.55033,-0.22225 0.16933,-0.22225 0.16933,-0.48683 v -1.73566 q 0,-0.26459 -0.16933,-0.48684 -0.15875,-0.22224 -0.55033,-0.22224 h -2.2225 v 6.91089 q 0,0.508 -0.63499,0.508 -0.61384,0 -0.61384,-0.508 v -7.34481 q 0,-0.381 0.1905,-0.508 0.1905,-0.127 0.46567,-0.127 h 3.09032 q 0.26458,0 0.56092,0.11642 0.29633,0.11641 0.5715,0.29633 h -0.0106 q 0.27517,0.20108 0.42333,0.52917 0.14817,0.3175 0.14817,0.74083 v 1.91557 q 0,0.85725 -0.5715,1.28058 -0.27516,0.20109 -0.56091,0.30692 -0.28575,0.10583 -0.56092,0.10583 z"
         style="fill:#e5bb58"
         id="path1948" />
    </g>
    <text
       xml:space="preserve"
       transform="scale(0.26458333)"
       id="text79907"
       style="font-style:normal;font-weight:normal;font-size:40px;line-height:1.25;font-family:sans-serif;white-space:pre;shape-inside:url(#rect79909);fill:#000000;fill-opacity:1;stroke:none" />
    <text
       xml:space="preserve"
       transform="scale(0.26458333)"
       id="text83429"
       style="font-style:normal;font-weight:normal;font-size:40px;line-height:1.25;font-family:sans-serif;white-space:pre;shape-inside:url(#rect83431);fill:#000000;fill-opacity:1;stroke:none" />
  </g>
</svg>
